<svg width="360" height="93" viewBox="0 0 360 93" fill="none" xmlns="http://www.w3.org/2000/svg">
<path d="M59.7046 2.18474H59.3046V2.58474V61.1859H56.7624L24.8305 2.39383L24.7169 2.18474H24.479H0.872925H0.472925V2.58474V89.6236V90.0236H0.872925H17.5072H17.9072V89.6236V31.0225H20.4494L52.3813 89.8145L52.4949 90.0236H52.7328H76.3389H76.7389V89.6236V2.58474V2.18474H76.3389H59.7046ZM162.874 73.4105V73.0105H162.474H115.172V53.3307H150.854H151.254V52.9307V37.0833V36.6833H150.854H115.172V19.1979H161.128H161.528V18.7979V2.58474V2.18474H161.128H96.548H96.148V2.58474V89.6236V90.0236H96.548H162.474H162.874V89.6236V73.4105ZM213.235 28.5158H212.931L212.849 28.8086L202.045 67.6467H199.527L192.228 2.54018L192.188 2.18474H191.83H174.34H173.889L173.943 2.63218L184.339 89.671L184.381 90.0236H184.736H211.4H211.708L211.787 89.7262L223.327 46.2604H225.891L237.31 89.7252L237.388 90.0236H237.697H264.361H264.716L264.758 89.671L275.154 2.63218L275.208 2.18474H274.757H257.511H257.154L257.114 2.53945L249.693 67.6467H247.296L236.37 28.8075L236.288 28.5158H235.985H213.235ZM356.921 26.8778H357.373L346.157 7.82658L346.396 7.50569C346.396 7.50563 346.396 7.50557 346.396 7.50551C340.196 2.8915 332.278 0.6 322.674 0.6C312.418 0.6 304.284 3.09467 298.32 8.13048C292.362 13.1614 289.372 19.489 289.372 27.0873C289.372 33.7892 291.261 39.1879 295.076 43.2394C298.885 47.2846 304.573 49.943 312.086 51.2524L328.716 54.1773C328.716 54.1774 328.717 54.1775 328.717 54.1776C332.598 54.9029 335.457 56.0633 337.34 57.627L337.346 57.632C339.266 59.1631 340.253 61.4714 340.253 64.6334C340.253 67.9076 338.857 70.4667 336.029 72.3459L336.024 72.3488C333.259 74.2385 329.475 75.2047 324.631 75.2047C318.882 75.2047 314.453 74.1646 311.302 72.1297C308.165 70.1046 306.254 67.0698 305.578 62.9834L305.522 62.6487H305.183H286.592H286.148L286.194 63.0897C287.101 71.8871 290.862 78.8569 297.478 83.9669C304.091 89.0749 312.91 91.6083 323.897 91.6083C335.287 91.6083 344.078 88.9952 350.21 83.7095L350.212 83.7075C356.33 78.3515 359.4 71.7009 359.4 63.7801C359.4 56.6718 357.398 50.9288 353.361 46.5934C349.329 42.2642 343.306 39.3816 335.344 37.909L335.342 37.9087L319.075 34.983L319.075 34.983C315.478 34.3386 312.833 33.2892 311.093 31.867C309.37 30.4588 308.518 28.6723 308.518 26.4778C308.518 23.3613 309.796 21.0559 312.362 19.506L312.369 19.5014C314.979 17.846 318.323 17.0036 322.429 17.0036C326.953 17.0036 330.479 17.8198 333.042 19.412C335.593 20.996 337.226 23.3689 337.939 26.5648L338.009 26.8778H338.329H356.921Z" fill="#FF5533" stroke="#FF5533" stroke-width="0.8"/>
</svg>
